<mxfile host="app.diagrams.net" modified="2024-07-29T17:50:02.022Z" agent="Mozilla/5.0 (Windows NT 10.0; Win64; x64) AppleWebKit/537.36 (KHTML, like Gecko) Chrome/127.0.0.0 Safari/537.36" version="24.5.4" etag="rhV7O_J7LfpdYJPKA9he" type="github">
  <diagram name="Page-1" id="JV2mC77LUHXjqmVM8Dt_">
    <mxGraphModel>
      <root>
        <mxCell id="0" />
        <mxCell id="1" parent="0" />
      </root>
    </mxGraphModel>
  </diagram>
</mxfile>
